<svg xmlns="http://www.w3.org/2000/svg" xmlns:xlink="http://www.w3.org/1999/xlink" id="Layer_1" x="0" y="0" fill="#fff" version="1.1" viewBox="-67 19 64 64" xml:space="preserve" style="enable-background:new -67 19 64 64"><path d="M-35,19c-17.6,0-32,14.4-32,32s14.4,32,32,32c17.6,0,32-14.4,32-32S-17.4,19-35,19z M-35,75.9c-13.7,0-24.9-11.2-24.9-24.9	S-48.7,26.1-35,26.1c13.7,0,24.9,11.2,24.9,24.9S-21.3,75.9-35,75.9z"/><polygon points="-23.7 44.7 -28.7 39.7 -35 46 -41.3 39.7 -46.3 44.7 -40 51 -46.3 57.3 -41.3 62.3 -35 56 -28.7 62.3 -23.7 57.3 -30 51"/></svg>